PathFileType	4	(X/Y/Z)	C:\Users\italobelli\Desktop\GitHub\PTbot_officialCBL\Personal_Results\FLX21_noisy1.trc
DataRate	CameraRate	NumFrames	NumMarkers	Units	OrigDataRate	OrigDataStartFrame	OrigNumFrames
107.000000	107.000000	42	9	m	107.000000	563	750
Frame#	Time		gu		centelbow		EpL		centpxt8		centijc7		ij		ts		aa		ai
			X1	Y1	Z1	X2	Y2	Z2	X3	Y3	Z3	X4	Y4	Z4	X5	Y5	Z5	X6	Y6	Z6	X7	Y7	Z7	X8	Y8	Z8	X9	Y9	Z9

563	5.2523	-0.068414	-0.017596	0.16273	-0.11997	-0.2529	0.1909	-0.10285	-0.24878	0.21805	-0.046816	-0.15316	-0.008669	-0.046816	0.031938	-0.008669	0	0	0	-0.12985	0.032608	0.055533	-0.093221	0.017691	0.16794	-0.15354	-0.078367	0.053968
564	5.2617	-0.068407	-0.017648	0.16269	-0.12075	-0.25288	0.19034	-0.10369	-0.24888	0.21753	-0.046816	-0.15316	-0.008669	-0.046816	0.031938	-0.008669	0	0	0	-0.12975	0.03263	0.055517	-0.093235	0.017655	0.16796	-0.15342	-0.078347	0.053873
565	5.271	-0.068401	-0.017697	0.16265	-0.12151	-0.25286	0.18978	-0.10452	-0.24897	0.21701	-0.046816	-0.15316	-0.008669	-0.046816	0.031938	-0.008669	0	0	0	-0.12965	0.032651	0.055501	-0.093249	0.01762	0.16798	-0.1533	-0.078328	0.05378
566	5.2804	-0.068396	-0.017745	0.16261	-0.12226	-0.25285	0.18923	-0.10532	-0.24906	0.2165	-0.046816	-0.15316	-0.008669	-0.046816	0.031938	-0.008669	0	0	0	-0.12955	0.032671	0.055485	-0.093264	0.017586	0.168	-0.15318	-0.078309	0.053687
567	5.2897	-0.068391	-0.017791	0.16257	-0.12298	-0.25283	0.18868	-0.1061	-0.24915	0.216	-0.046816	-0.15316	-0.008669	-0.046816	0.031938	-0.008669	0	0	0	-0.12946	0.032691	0.055468	-0.09328	0.017554	0.16802	-0.15306	-0.078292	0.053597
568	5.2991	-0.068388	-0.017834	0.16254	-0.12369	-0.25282	0.18815	-0.10686	-0.24924	0.2155	-0.046816	-0.15316	-0.008669	-0.046816	0.031938	-0.008669	0	0	0	-0.12937	0.03271	0.055451	-0.093296	0.017523	0.16803	-0.15295	-0.078275	0.053508
569	5.3084	-0.068386	-0.017876	0.1625	-0.12438	-0.25281	0.18762	-0.10761	-0.24932	0.215	-0.046816	-0.15316	-0.008669	-0.046816	0.031938	-0.008669	0	0	0	-0.12928	0.032729	0.055433	-0.093313	0.017493	0.16805	-0.15283	-0.078259	0.05342
570	5.3178	-0.068385	-0.017916	0.16246	-0.12505	-0.2528	0.1871	-0.10833	-0.24941	0.21452	-0.046816	-0.15316	-0.008669	-0.046816	0.031938	-0.008669	0	0	0	-0.1292	0.032747	0.055415	-0.093331	0.017465	0.16807	-0.15272	-0.078245	0.053335
571	5.3271	-0.068387	-0.017953	0.16243	-0.1257	-0.25279	0.18659	-0.10903	-0.2495	0.21404	-0.046816	-0.15316	-0.008669	-0.046816	0.031938	-0.008669	0	0	0	-0.12912	0.032765	0.055397	-0.093351	0.017439	0.16808	-0.15261	-0.078231	0.053252
572	5.3364	-0.068391	-0.017987	0.1624	-0.12633	-0.25278	0.18609	-0.10972	-0.24959	0.21358	-0.046816	-0.15316	-0.008669	-0.046816	0.031938	-0.008669	0	0	0	-0.12904	0.032782	0.055378	-0.093371	0.017414	0.1681	-0.15251	-0.078218	0.053171
573	5.3458	-0.068397	-0.018019	0.16236	-0.12695	-0.25278	0.1856	-0.11038	-0.24968	0.21312	-0.046816	-0.15316	-0.008669	-0.046816	0.031938	-0.008669	0	0	0	-0.12897	0.032798	0.055359	-0.093392	0.017391	0.16811	-0.15241	-0.078205	0.053092
574	5.3551	-0.068406	-0.018049	0.16233	-0.12754	-0.25278	0.18513	-0.11102	-0.24976	0.21268	-0.046816	-0.15316	-0.008669	-0.046816	0.031938	-0.008669	0	0	0	-0.1289	0.032814	0.055339	-0.093415	0.017371	0.16812	-0.15231	-0.078194	0.053015
575	5.3645	-0.068418	-0.018076	0.1623	-0.12811	-0.25278	0.18467	-0.11164	-0.24985	0.21225	-0.046816	-0.15316	-0.008669	-0.046816	0.031938	-0.008669	0	0	0	-0.12883	0.032829	0.055319	-0.093439	0.017352	0.16813	-0.15222	-0.078184	0.052941
576	5.3738	-0.068433	-0.0181	0.16228	-0.12867	-0.25278	0.18422	-0.11225	-0.24994	0.21183	-0.046816	-0.15316	-0.008669	-0.046816	0.031938	-0.008669	0	0	0	-0.12877	0.032843	0.055299	-0.093464	0.017335	0.16814	-0.15213	-0.078175	0.05287
577	5.3832	-0.068451	-0.018121	0.16225	-0.1292	-0.25279	0.18379	-0.11283	-0.25002	0.21142	-0.046816	-0.15316	-0.008669	-0.046816	0.031938	-0.008669	0	0	0	-0.12871	0.032856	0.055279	-0.093492	0.017321	0.16815	-0.15204	-0.078166	0.052801
578	5.3925	-0.068473	-0.018139	0.16222	-0.12972	-0.2528	0.18337	-0.11338	-0.25011	0.21103	-0.046816	-0.15316	-0.008669	-0.046816	0.031938	-0.008669	0	0	0	-0.12866	0.032869	0.055257	-0.09352	0.017309	0.16815	-0.15197	-0.078159	0.052735
579	5.4019	-0.068499	-0.018154	0.1622	-0.13021	-0.25282	0.18297	-0.11392	-0.25019	0.21065	-0.046816	-0.15316	-0.008669	-0.046816	0.031938	-0.008669	0	0	0	-0.12861	0.03288	0.055236	-0.093551	0.017299	0.16816	-0.15189	-0.078152	0.052672
580	5.4112	-0.068529	-0.018166	0.16218	-0.13069	-0.25284	0.18258	-0.11444	-0.25028	0.21029	-0.046816	-0.15316	-0.008669	-0.046816	0.031938	-0.008669	0	0	0	-0.12856	0.032891	0.055214	-0.093584	0.017292	0.16816	-0.15183	-0.078147	0.052612
581	5.4206	-0.068564	-0.018175	0.16216	-0.13115	-0.25286	0.18221	-0.11493	-0.25036	0.20995	-0.046816	-0.15316	-0.008669	-0.046816	0.031938	-0.008669	0	0	0	-0.12852	0.032901	0.055192	-0.093618	0.017287	0.16816	-0.15177	-0.078142	0.052555
582	5.4299	-0.068603	-0.01818	0.16214	-0.13158	-0.25289	0.18186	-0.11541	-0.25045	0.20962	-0.046816	-0.15316	-0.008669	-0.046816	0.031938	-0.008669	0	0	0	-0.12849	0.03291	0.05517	-0.093655	0.017285	0.16817	-0.15171	-0.078139	0.052502
583	5.4393	-0.068647	-0.018182	0.16213	-0.132	-0.25292	0.18153	-0.11586	-0.25053	0.20931	-0.046816	-0.15316	-0.008669	-0.046816	0.031938	-0.008669	0	0	0	-0.12846	0.032918	0.055147	-0.093693	0.017285	0.16817	-0.15166	-0.078136	0.052452
584	5.4486	-0.068696	-0.018181	0.16212	-0.1324	-0.25296	0.18122	-0.11628	-0.25062	0.20903	-0.046816	-0.15316	-0.008669	-0.046816	0.031938	-0.008669	0	0	0	-0.12844	0.032926	0.055124	-0.093734	0.017289	0.16816	-0.15162	-0.078135	0.052405
585	5.4579	-0.06875	-0.018175	0.1621	-0.13277	-0.253	0.18093	-0.11669	-0.2507	0.20876	-0.046816	-0.15316	-0.008669	-0.046816	0.031938	-0.008669	0	0	0	-0.12842	0.032932	0.055101	-0.093777	0.017295	0.16816	-0.15159	-0.078134	0.052363
586	5.4673	-0.068811	-0.018166	0.1621	-0.13313	-0.25304	0.18066	-0.11707	-0.25079	0.20851	-0.046816	-0.15316	-0.008669	-0.046816	0.031938	-0.008669	0	0	0	-0.1284	0.032937	0.055077	-0.093823	0.017304	0.16815	-0.15157	-0.078135	0.052323
587	5.4766	-0.068877	-0.018154	0.16209	-0.13347	-0.25309	0.18042	-0.11744	-0.25087	0.20828	-0.046816	-0.15316	-0.008669	-0.046816	0.031938	-0.008669	0	0	0	-0.12839	0.032942	0.055053	-0.093871	0.017316	0.16815	-0.15155	-0.078136	0.052288
588	5.486	-0.068949	-0.018137	0.16209	-0.13378	-0.25315	0.18019	-0.11777	-0.25095	0.20807	-0.046816	-0.15316	-0.008669	-0.046816	0.031938	-0.008669	0	0	0	-0.12839	0.032945	0.055028	-0.093922	0.017332	0.16814	-0.15154	-0.078139	0.052257
589	5.4953	-0.069027	-0.018116	0.16209	-0.13408	-0.25321	0.17999	-0.11809	-0.25104	0.20789	-0.046816	-0.15316	-0.008669	-0.046816	0.031938	-0.008669	0	0	0	-0.1284	0.032947	0.055003	-0.093976	0.01735	0.16813	-0.15155	-0.078143	0.05223
590	5.5047	-0.069112	-0.018091	0.16209	-0.13436	-0.25327	0.17981	-0.11839	-0.25112	0.20773	-0.046816	-0.15316	-0.008669	-0.046816	0.031938	-0.008669	0	0	0	-0.12841	0.032949	0.054978	-0.094033	0.017373	0.16811	-0.15156	-0.078147	0.052207
591	5.514	-0.069201	-0.018064	0.16209	-0.13464	-0.25334	0.17964	-0.11869	-0.25121	0.20758	-0.046816	-0.15316	-0.008669	-0.046816	0.031938	-0.008669	0	0	0	-0.12842	0.03295	0.054949	-0.094097	0.0174	0.1681	-0.15157	-0.078152	0.052184
592	5.5234	-0.069294	-0.018035	0.1621	-0.13493	-0.25341	0.17947	-0.11899	-0.25129	0.20743	-0.046816	-0.15316	-0.008669	-0.046816	0.031938	-0.008669	0	0	0	-0.12844	0.032951	0.054916	-0.094169	0.017432	0.16808	-0.15158	-0.078157	0.052162
593	5.5327	-0.069391	-0.018004	0.1621	-0.13522	-0.25347	0.17931	-0.1193	-0.25137	0.20728	-0.046816	-0.15316	-0.008669	-0.046816	0.031938	-0.008669	0	0	0	-0.12846	0.032952	0.054879	-0.094248	0.017469	0.16806	-0.1516	-0.078162	0.05214
594	5.5421	-0.069491	-0.017972	0.1621	-0.13552	-0.25354	0.17915	-0.11961	-0.25145	0.20714	-0.046816	-0.15316	-0.008669	-0.046816	0.031938	-0.008669	0	0	0	-0.12848	0.032953	0.054838	-0.094333	0.01751	0.16805	-0.15161	-0.078167	0.052118
595	5.5514	-0.069594	-0.017937	0.16211	-0.13582	-0.2536	0.179	-0.11993	-0.25153	0.207	-0.046816	-0.15316	-0.008669	-0.046816	0.031938	-0.008669	0	0	0	-0.12851	0.032954	0.054795	-0.094425	0.017556	0.16802	-0.15163	-0.078172	0.052096
596	5.5607	-0.069701	-0.017901	0.16211	-0.13612	-0.25367	0.17885	-0.12025	-0.25161	0.20687	-0.046816	-0.15316	-0.008669	-0.046816	0.031938	-0.008669	0	0	0	-0.12854	0.032956	0.054748	-0.094523	0.017606	0.168	-0.15165	-0.078177	0.052075
597	5.5701	-0.069811	-0.017863	0.16211	-0.13643	-0.25373	0.17871	-0.12057	-0.25169	0.20674	-0.046816	-0.15316	-0.008669	-0.046816	0.031938	-0.008669	0	0	0	-0.12858	0.032957	0.054697	-0.094627	0.01766	0.16798	-0.15167	-0.078182	0.052054
598	5.5794	-0.069923	-0.017825	0.16211	-0.13674	-0.2538	0.17857	-0.1209	-0.25177	0.20661	-0.046816	-0.15316	-0.008669	-0.046816	0.031938	-0.008669	0	0	0	-0.12862	0.032958	0.054644	-0.094737	0.017718	0.16795	-0.15169	-0.078188	0.052034
599	5.5888	-0.070039	-0.017784	0.16212	-0.13705	-0.25387	0.17844	-0.12123	-0.25185	0.20649	-0.046816	-0.15316	-0.008669	-0.046816	0.031938	-0.008669	0	0	0	-0.12866	0.032959	0.054589	-0.094853	0.017779	0.16793	-0.15172	-0.078193	0.052014
600	5.5981	-0.070157	-0.017743	0.16212	-0.13736	-0.25393	0.17831	-0.12155	-0.25193	0.20638	-0.046816	-0.15316	-0.008669	-0.046816	0.031938	-0.008669	0	0	0	-0.1287	0.032959	0.054531	-0.094973	0.017843	0.1679	-0.15174	-0.078199	0.051994
601	5.6075	-0.070277	-0.017701	0.16212	-0.13768	-0.254	0.17818	-0.12189	-0.25201	0.20626	-0.046816	-0.15316	-0.008669	-0.046816	0.031938	-0.008669	0	0	0	-0.12875	0.03296	0.05447	-0.095098	0.01791	0.16787	-0.15177	-0.078205	0.051974
602	5.6168	-0.070399	-0.017657	0.16213	-0.138	-0.25407	0.17806	-0.12222	-0.25208	0.20616	-0.046816	-0.15316	-0.008669	-0.046816	0.031938	-0.008669	0	0	0	-0.1288	0.032961	0.054407	-0.095228	0.01798	0.16785	-0.15179	-0.078211	0.051955
603	5.6262	-0.070524	-0.017613	0.16213	-0.13831	-0.25413	0.17795	-0.12255	-0.25216	0.20605	-0.046816	-0.15316	-0.008669	-0.046816	0.031938	-0.008669	0	0	0	-0.12885	0.032961	0.054342	-0.095362	0.018053	0.16782	-0.15182	-0.078217	0.051936
604	5.6355	-0.070651	-0.017568	0.16213	-0.13863	-0.2542	0.17784	-0.12288	-0.25224	0.20595	-0.046816	-0.15316	-0.008669	-0.046816	0.031938	-0.008669	0	0	0	-0.12891	0.032961	0.054276	-0.0955	0.018128	0.16779	-0.15185	-0.078223	0.051917
